<svg width="512" xmlns="http://www.w3.org/2000/svg" height="512" id="screenshot-425aaa27-3edf-8016-8006-a91b11b5c0eb" viewBox="0 0 512 512" xmlns:xlink="http://www.w3.org/1999/xlink" fill="none" version="1.1"><g id="shape-425aaa27-3edf-8016-8006-a91b11b5c0eb"><defs><clipPath id="frame-clip-425aaa27-3edf-8016-8006-a91b11b5c0eb-render-1" class="frame-clip frame-clip-def"><rect rx="0" ry="0" x="0" y="5.684341886080802e-14" width="512" height="511.99999999999994" transform="matrix(1.000000, 0.000000, 0.000000, 1.000000, 0.000000, 0.000000)"/></clipPath></defs><g class="frame-container-wrapper"><g class="frame-container-blur"><g class="frame-container-shadows"><g clip-path="url(#frame-clip-425aaa27-3edf-8016-8006-a91b11b5c0eb-render-1)" fill="none"><g class="fills" id="fills-425aaa27-3edf-8016-8006-a91b11b5c0eb"><rect rx="0" ry="0" x="0" y="5.684341886080802e-14" width="512" height="511.99999999999994" transform="matrix(1.000000, 0.000000, 0.000000, 1.000000, 0.000000, 0.000000)" class="frame-background"/></g><g class="frame-children"><g id="shape-425aaa27-3edf-8016-8006-a91b5f9970df" width="256" class="lucide lucide-youtube-icon lucide-youtube" height="256" rx="0" ry="0" style="fill: rgb(0, 0, 0);"><g id="shape-425aaa27-3edf-8016-8006-a91b5f9a9660" style="display: none;"><g class="fills" id="fills-425aaa27-3edf-8016-8006-a91b5f9a9660"><rect width="512" height="512" x="0" stroke-linejoin="round" transform="matrix(1.000000, 0.000000, 0.000000, 1.000000, 0.000000, 0.000000)" style="fill: none;" ry="0" fill="none" stroke-linecap="round" rx="0" y="0"/></g><g fill="none" stroke-linejoin="round" stroke-linecap="round" id="strokes-3a11a182-5f40-80d1-8006-a91c92174462-425aaa27-3edf-8016-8006-a91b5f9a9660" class="strokes"><g class="inner-stroke-shape" transform="matrix(1.000000, 0.000000, 0.000000, 1.000000, 0.000000, 0.000000)"><defs><clipPath id="inner-stroke-render-3-425aaa27-3edf-8016-8006-a91b5f9a9660-0"><use href="#stroke-shape-render-3-425aaa27-3edf-8016-8006-a91b5f9a9660-0"/></clipPath><rect rx="0" ry="0" x="0" y="0" width="512" height="512" id="stroke-shape-render-3-425aaa27-3edf-8016-8006-a91b5f9a9660-0" style="fill: none; stroke-width: 2; stroke: rgb(0, 0, 0); stroke-opacity: 0.5;"/></defs><use href="#stroke-shape-render-3-425aaa27-3edf-8016-8006-a91b5f9a9660-0" clip-path="url('#inner-stroke-render-3-425aaa27-3edf-8016-8006-a91b5f9a9660-0')"/></g></g></g><g id="shape-425aaa27-3edf-8016-8006-a91c0eb279af"><g class="fills" id="fills-425aaa27-3edf-8016-8006-a91c0eb279af"><path d="M53.33332824707031,362.6666564941406C38.43032455444336,292.3365478515625,38.43032455444336,219.6637420654297,53.33332824707031,149.3333282470703C57.31704330444336,134.802734375,68.66926574707031,123.45052337646484,83.19985961914062,119.46678924560547C197.62013244628906,100.51106262207031,314.3795471191406,100.51106262207031,428.8001708984375,119.46678924560547C443.3306884765625,123.45052337646484,454.6829528808594,134.802734375,458.6666564941406,149.3333282470703C473.56964111328125,219.6637420654297,473.56964111328125,292.3365478515625,458.6666564941406,362.6666564941406C454.6829528808594,377.197265625,443.3306884765625,388.54949951171875,428.8001708984375,392.5332336425781C314.3802185058594,411.4927978515625,197.61978149414062,411.4927978515625,83.19985961914062,392.5332336425781C68.66926574707031,388.54949951171875,57.31704330444336,377.197265625,53.33332824707031,362.6666564941406M319.9999694824219,299.33477783203125L255.99998474121094,192.6681365966797L192,299.33477783203125L319.9999694824219,299.33477783203125" style="fill: rgb(255, 255, 255); fill-opacity: 1;"/></g><g id="strokes-3a11a182-5f40-80d1-8006-a91c92184c38-425aaa27-3edf-8016-8006-a91c0eb279af" class="strokes"><g class="outer-stroke-shape"><defs><mask id="outer-stroke-render-4-425aaa27-3edf-8016-8006-a91c0eb279af-0" x="28.013939853869147" y="91.10785865422315" width="455.9720907283579" height="329.7871837688242" maskUnits="userSpaceOnUse"><use href="#stroke-shape-render-4-425aaa27-3edf-8016-8006-a91c0eb279af-0" style="fill: none; stroke: white; stroke-width: 20;"/><use href="#stroke-shape-render-4-425aaa27-3edf-8016-8006-a91c0eb279af-0" style="fill: black; stroke: none;"/></mask><path d="M53.33332824707031,362.6666564941406C38.43032455444336,292.3365478515625,38.43032455444336,219.6637420654297,53.33332824707031,149.3333282470703C57.31704330444336,134.802734375,68.66926574707031,123.45052337646484,83.19985961914062,119.46678924560547C197.62013244628906,100.51106262207031,314.3795471191406,100.51106262207031,428.8001708984375,119.46678924560547C443.3306884765625,123.45052337646484,454.6829528808594,134.802734375,458.6666564941406,149.3333282470703C473.56964111328125,219.6637420654297,473.56964111328125,292.3365478515625,458.6666564941406,362.6666564941406C454.6829528808594,377.197265625,443.3306884765625,388.54949951171875,428.8001708984375,392.5332336425781C314.3802185058594,411.4927978515625,197.61978149414062,411.4927978515625,83.19985961914062,392.5332336425781C68.66926574707031,388.54949951171875,57.31704330444336,377.197265625,53.33332824707031,362.6666564941406M319.9999694824219,299.33477783203125L255.99998474121094,192.6681365966797L192,299.33477783203125L319.9999694824219,299.33477783203125" id="stroke-shape-render-4-425aaa27-3edf-8016-8006-a91c0eb279af-0"/></defs><use href="#stroke-shape-render-4-425aaa27-3edf-8016-8006-a91c0eb279af-0" mask="url(#outer-stroke-render-4-425aaa27-3edf-8016-8006-a91c0eb279af-0)" style="fill: none; stroke-width: 20; stroke: rgb(0, 0, 0); stroke-opacity: 0.5;"/><use href="#stroke-shape-render-4-425aaa27-3edf-8016-8006-a91c0eb279af-0" style="fill: none; stroke-width: 10; stroke: none; stroke-opacity: 0.5;"/></g></g></g></g></g></g></g></g></g></g></svg>